<mxfile host="Electron" modified="2024-06-24T00:30:21.341Z" agent="Mozilla/5.0 (Macintosh; Intel Mac OS X 10_15_7) AppleWebKit/537.36 (KHTML, like Gecko) draw.io/24.0.4 Chrome/120.0.6099.109 Electron/28.1.0 Safari/537.36" etag="Dc36j-QNPfrB75PAOyAd" version="24.0.4" type="device">
  <diagram name="페이지-1" id="0Cy4C--uyud16STdJabE">
    <mxGraphModel dx="2134" dy="855" grid="1" gridSize="10" guides="1" tooltips="1" connect="1" arrows="1" fold="1" page="1" pageScale="1" pageWidth="827" pageHeight="1169" math="0" shadow="0">
      <root>
        <mxCell id="0" />
        <mxCell id="1" parent="0" />
        <mxCell id="ThVx_SA2kHYfWzAcDMi8-4" style="edgeStyle=orthogonalEdgeStyle;rounded=0;orthogonalLoop=1;jettySize=auto;html=1;entryX=0;entryY=0.5;entryDx=0;entryDy=0;curved=1;" parent="1" source="ThVx_SA2kHYfWzAcDMi8-2" target="ThVx_SA2kHYfWzAcDMi8-3" edge="1">
          <mxGeometry relative="1" as="geometry" />
        </mxCell>
        <mxCell id="nc6hiN1mm_Awx8ee_F4A-4" value="PG결제 취소 요청" style="edgeStyle=orthogonalEdgeStyle;rounded=0;orthogonalLoop=1;jettySize=auto;html=1;curved=1;" edge="1" parent="1" source="ThVx_SA2kHYfWzAcDMi8-2" target="nc6hiN1mm_Awx8ee_F4A-2">
          <mxGeometry relative="1" as="geometry" />
        </mxCell>
        <mxCell id="ThVx_SA2kHYfWzAcDMi8-2" value="&lt;b&gt;&lt;font style=&quot;font-size: 24px;&quot;&gt;BATCH&lt;/font&gt;&lt;/b&gt;" style="rounded=0;whiteSpace=wrap;html=1;fillColor=#f8cecc;strokeColor=#b85450;" parent="1" vertex="1">
          <mxGeometry x="120" y="240" width="200" height="100" as="geometry" />
        </mxCell>
        <mxCell id="ThVx_SA2kHYfWzAcDMi8-7" style="edgeStyle=orthogonalEdgeStyle;rounded=0;orthogonalLoop=1;jettySize=auto;html=1;entryX=0;entryY=0.5;entryDx=0;entryDy=0;" parent="1" source="ThVx_SA2kHYfWzAcDMi8-3" target="ThVx_SA2kHYfWzAcDMi8-6" edge="1">
          <mxGeometry relative="1" as="geometry" />
        </mxCell>
        <mxCell id="ThVx_SA2kHYfWzAcDMi8-3" value="설문 주문별 환불처리 JOB&lt;div&gt;BizMoneyRefundJob&lt;br&gt;&lt;/div&gt;" style="rounded=1;whiteSpace=wrap;html=1;fillColor=#fff2cc;strokeColor=#d6b656;" parent="1" vertex="1">
          <mxGeometry x="390" y="130" width="150" height="60" as="geometry" />
        </mxCell>
        <mxCell id="ThVx_SA2kHYfWzAcDMi8-11" style="edgeStyle=orthogonalEdgeStyle;rounded=0;orthogonalLoop=1;jettySize=auto;html=1;entryX=0;entryY=0.5;entryDx=0;entryDy=0;curved=1;" parent="1" source="ThVx_SA2kHYfWzAcDMi8-6" target="ThVx_SA2kHYfWzAcDMi8-9" edge="1">
          <mxGeometry relative="1" as="geometry" />
        </mxCell>
        <mxCell id="ThVx_SA2kHYfWzAcDMi8-6" value="환불요청" style="ellipse;whiteSpace=wrap;html=1;" parent="1" vertex="1">
          <mxGeometry x="590" y="135" width="75" height="50" as="geometry" />
        </mxCell>
        <mxCell id="ThVx_SA2kHYfWzAcDMi8-8" value="&lt;span style=&quot;font-size: 24px;&quot;&gt;&lt;b&gt;FO API&lt;/b&gt;&lt;/span&gt;" style="rounded=0;whiteSpace=wrap;html=1;fillColor=#f8cecc;strokeColor=#b85450;" parent="1" vertex="1">
          <mxGeometry x="970" y="240" width="200" height="100" as="geometry" />
        </mxCell>
        <mxCell id="ThVx_SA2kHYfWzAcDMi8-10" style="edgeStyle=orthogonalEdgeStyle;rounded=0;orthogonalLoop=1;jettySize=auto;html=1;entryX=0;entryY=0.5;entryDx=0;entryDy=0;" parent="1" source="ThVx_SA2kHYfWzAcDMi8-9" target="ThVx_SA2kHYfWzAcDMi8-8" edge="1">
          <mxGeometry relative="1" as="geometry" />
        </mxCell>
        <mxCell id="ThVx_SA2kHYfWzAcDMi8-9" value="비즈머니 부분환급&lt;div&gt;/api/bizPoint/setBizPointAddPart&lt;br&gt;&lt;/div&gt;" style="rounded=1;whiteSpace=wrap;html=1;fillColor=#f5f5f5;fontColor=#333333;strokeColor=#666666;" parent="1" vertex="1">
          <mxGeometry x="750" y="260" width="190" height="60" as="geometry" />
        </mxCell>
        <mxCell id="ThVx_SA2kHYfWzAcDMi8-16" style="edgeStyle=orthogonalEdgeStyle;rounded=0;orthogonalLoop=1;jettySize=auto;html=1;entryX=0;entryY=0.5;entryDx=0;entryDy=0;curved=1;" parent="1" source="ThVx_SA2kHYfWzAcDMi8-14" target="ThVx_SA2kHYfWzAcDMi8-19" edge="1">
          <mxGeometry relative="1" as="geometry">
            <mxPoint x="390" y="630" as="targetPoint" />
          </mxGeometry>
        </mxCell>
        <mxCell id="nc6hiN1mm_Awx8ee_F4A-6" style="edgeStyle=orthogonalEdgeStyle;rounded=0;orthogonalLoop=1;jettySize=auto;html=1;entryX=0;entryY=0.5;entryDx=0;entryDy=0;curved=1;" edge="1" parent="1" source="ThVx_SA2kHYfWzAcDMi8-14" target="nc6hiN1mm_Awx8ee_F4A-5">
          <mxGeometry relative="1" as="geometry" />
        </mxCell>
        <mxCell id="ThVx_SA2kHYfWzAcDMi8-14" value="&lt;span style=&quot;font-size: 24px;&quot;&gt;&lt;b&gt;GS Platform&lt;br&gt;(MBS)&lt;/b&gt;&lt;/span&gt;" style="rounded=0;whiteSpace=wrap;html=1;fillColor=#f8cecc;strokeColor=#b85450;" parent="1" vertex="1">
          <mxGeometry x="280" y="485" width="200" height="100" as="geometry" />
        </mxCell>
        <mxCell id="ThVx_SA2kHYfWzAcDMi8-17" value="&lt;span style=&quot;font-size: 24px;&quot;&gt;&lt;b&gt;BO API&lt;/b&gt;&lt;/span&gt;" style="rounded=0;whiteSpace=wrap;html=1;fillColor=#f8cecc;strokeColor=#b85450;" parent="1" vertex="1">
          <mxGeometry x="970" y="440" width="200" height="100" as="geometry" />
        </mxCell>
        <mxCell id="ThVx_SA2kHYfWzAcDMi8-22" style="edgeStyle=orthogonalEdgeStyle;rounded=0;orthogonalLoop=1;jettySize=auto;html=1;entryX=0;entryY=0.5;entryDx=0;entryDy=0;curved=1;" parent="1" source="ThVx_SA2kHYfWzAcDMi8-19" target="ThVx_SA2kHYfWzAcDMi8-17" edge="1">
          <mxGeometry relative="1" as="geometry" />
        </mxCell>
        <mxCell id="ThVx_SA2kHYfWzAcDMi8-19" value="배송상품 취소 통보&lt;br&gt;/api/notification/shippingCancellation&lt;div&gt;&lt;b&gt;[NotificationCtrl]&lt;/b&gt;&lt;/div&gt;" style="rounded=1;whiteSpace=wrap;html=1;fillColor=#f5f5f5;fontColor=#333333;strokeColor=#666666;" parent="1" vertex="1">
          <mxGeometry x="690" y="460" width="220" height="60" as="geometry" />
        </mxCell>
        <mxCell id="ThVx_SA2kHYfWzAcDMi8-20" value="&lt;b&gt;&lt;font style=&quot;font-size: 24px;&quot;&gt;Controller&lt;/font&gt;&lt;/b&gt;" style="rounded=1;whiteSpace=wrap;html=1;fillColor=#f5f5f5;fontColor=#333333;strokeColor=#666666;" parent="1" vertex="1">
          <mxGeometry x="130" y="25" width="160" height="55" as="geometry" />
        </mxCell>
        <mxCell id="ThVx_SA2kHYfWzAcDMi8-21" value="&lt;b&gt;&lt;font style=&quot;font-size: 24px;&quot;&gt;Sever&lt;/font&gt;&lt;/b&gt;" style="rounded=0;whiteSpace=wrap;html=1;fillColor=#f8cecc;strokeColor=#b85450;" parent="1" vertex="1">
          <mxGeometry x="20" y="25" width="100" height="55" as="geometry" />
        </mxCell>
        <mxCell id="nc6hiN1mm_Awx8ee_F4A-2" value="&lt;span style=&quot;font-size: 24px;&quot;&gt;&lt;b&gt;GATEWAY&lt;/b&gt;&lt;/span&gt;&lt;div&gt;&lt;span style=&quot;font-size: 24px;&quot;&gt;&lt;b&gt;(PG - LEGACY)&lt;/b&gt;&lt;/span&gt;&lt;/div&gt;" style="rounded=0;whiteSpace=wrap;html=1;fillColor=#f8cecc;strokeColor=#b85450;" vertex="1" parent="1">
          <mxGeometry x="-330" y="420" width="180" height="80" as="geometry" />
        </mxCell>
        <mxCell id="nc6hiN1mm_Awx8ee_F4A-7" style="edgeStyle=orthogonalEdgeStyle;rounded=0;orthogonalLoop=1;jettySize=auto;html=1;entryX=0;entryY=0.5;entryDx=0;entryDy=0;curved=1;" edge="1" parent="1" source="nc6hiN1mm_Awx8ee_F4A-5" target="ThVx_SA2kHYfWzAcDMi8-17">
          <mxGeometry relative="1" as="geometry" />
        </mxCell>
        <mxCell id="nc6hiN1mm_Awx8ee_F4A-5" value="핀 상태 동기화&lt;br&gt;/api/callback/coupon&lt;div&gt;&lt;b&gt;[MBSCallbackController]&lt;/b&gt;&lt;/div&gt;" style="rounded=1;whiteSpace=wrap;html=1;fillColor=#f5f5f5;fontColor=#333333;strokeColor=#666666;" vertex="1" parent="1">
          <mxGeometry x="700" y="585" width="220" height="60" as="geometry" />
        </mxCell>
      </root>
    </mxGraphModel>
  </diagram>
</mxfile>
